<svg xmlns="http://www.w3.org/2000/svg"
     width="2000" height="782" viewBox="0 0 2000 782">
    <g transform="matrix(1,0,0,1,-1.2121212121212466,0.012047580227772414)">
        <svg viewBox="0 0 396 155" data-background-color="#ffa458" preserveAspectRatio="xMidYMid meet" height="782"
             width="2000" xmlns="http://www.w3.org/2000/svg">
            <g id="tight-bounds" transform="matrix(1,0,0,1,0.2400000000000091,-0.002387947487605402)">
                <svg viewBox="0 0 395.52 155.0047758949752" height="155.0047758949752" width="395.52">
                    <g>
                        <svg viewBox="0 0 692.4215017224938 271.3608406638282" height="155.0047758949752"
                             width="395.52">
                            <g>
                                <rect width="11.596844196493796" height="197.33548832644522" x="254.94642664512617"
                                      y="37.012676168691485" fill="#ffffff" opacity="1" stroke-width="0"
                                      stroke="transparent" fill-opacity="1" class="rect-qz-0"
                                      data-fill-palette-color="primary" rx="1%" id="qz-0"
                                      data-palette-color="#ffffff"></rect>
                            </g>
                            <g transform="matrix(1,0,0,1,296.9015017224938,37.50356046801099)">
                                <svg viewBox="0 0 395.52 196.3537197278062" height="196.3537197278062" width="395.52">
                                    <g id="textblocktransform">
                                        <svg viewBox="0 0 395.52 196.3537197278062" height="196.3537197278062"
                                             width="395.52" id="textblock">
                                            <g>
                                                <svg viewBox="0 0 395.52 128.59515952860016" height="128.59515952860016"
                                                     width="395.52">
                                                    <g transform="matrix(1,0,0,1,0,0)">
                                                        <svg width="395.52" viewBox="4.31 -31.38 97.92 31.84"
                                                             height="128.59515952860016" data-palette-color="#ffffff">
                                                            <g class="wordmark-text-0" data-fill-palette-color="primary"
                                                               id="text-0">
                                                                <path d="M4.31-1.9L4.31-29.48Q4.31-30.17 4.71-30.57L4.71-30.57Q5.4-31.26 6.21-31.38L6.21-31.38 16.32-31.38Q20.52-31.38 23.22-29.14L23.22-29.14Q25.86-27.01 25.86-23.45L25.86-23.45Q25.86-20.86 24.25-18.97L24.25-18.97Q22.53-17.01 19.83-16.38L19.83-16.38 19.83-16.32Q25-15.4 26.67-11.38L26.67-11.38Q27.13-10.11 27.13-8.51 27.13-6.9 26.61-5.34 26.09-3.79 24.83-2.64L24.83-2.64Q21.95 0 16.72 0L16.72 0 6.21 0Q5.52 0 5-0.46L5-0.46Q4.31-1.03 4.31-1.9L4.31-1.9ZM8.1-14.71L8.1-2.99 14.71-2.99Q19.08-2.99 20.86-4.25L20.86-4.25Q23.1-5.63 23.1-8.85L23.1-8.85Q23.1-13.91 17.13-14.6L17.13-14.6Q15.34-14.71 13.1-14.71L13.1-14.71 8.1-14.71ZM21.9-23.1L21.9-23.1Q21.9-28.39 14.6-28.28L14.6-28.28 8.1-28.28 8.1-17.59 14.66-17.59Q19.48-17.59 21.26-20.52L21.26-20.52Q21.9-21.55 21.9-23.1ZM34.65-1.9L34.65-29.48Q34.65-30.17 35.05-30.57L35.05-30.57Q35.74-31.26 36.55-31.38L36.55-31.38 46.66-31.38Q50.86-31.38 53.56-29.14L53.56-29.14Q56.2-27.01 56.2-23.45L56.2-23.45Q56.2-20.86 54.6-18.97L54.6-18.97Q52.87-17.01 50.17-16.38L50.17-16.38 50.17-16.32Q55.34-15.4 57.01-11.38L57.01-11.38Q57.47-10.11 57.47-8.51 57.47-6.9 56.95-5.34 56.43-3.79 55.17-2.64L55.17-2.64Q52.3 0 47.07 0L47.07 0 36.55 0Q35.86 0 35.34-0.46L35.34-0.46Q34.65-1.03 34.65-1.9L34.65-1.9ZM38.45-14.71L38.45-2.99 45.05-2.99Q49.42-2.99 51.2-4.25L51.2-4.25Q53.45-5.63 53.45-8.85L53.45-8.85Q53.45-13.91 47.47-14.6L47.47-14.6Q45.69-14.71 43.45-14.71L43.45-14.71 38.45-14.71ZM52.24-23.1L52.24-23.1Q52.24-28.39 44.94-28.28L44.94-28.28 38.45-28.28 38.45-17.59 45-17.59Q49.83-17.59 51.61-20.52L51.61-20.52Q52.24-21.55 52.24-23.1ZM65.28-1.9L65.28-29.48Q65.28-30.69 66.43-31.21L66.43-31.21Q66.78-31.26 67.41-31.32 68.04-31.38 68.59-30.92 69.13-30.46 69.13-29.48L69.13-29.48 69.13-1.9Q69.13-0.52 67.93-0.11L67.93-0.11Q67.58 0 67.01 0 66.43 0 65.86-0.46 65.28-0.92 65.28-1.9L65.28-1.9ZM77.75-10.92L77.75-29.48Q77.75-30.34 78.21-30.69L78.21-30.69Q78.96-31.38 79.73-31.38 80.51-31.38 81.11-30.92 81.72-30.46 81.72-29.48L81.72-29.48 81.72-10.92Q81.72-7.01 84.3-4.71L84.3-4.71Q86.6-2.76 89.99-2.76L89.99-2.76Q93.44-2.76 95.68-4.71L95.68-4.71Q98.27-6.9 98.27-10.92L98.27-10.92 98.27-29.48Q98.27-30.34 98.79-30.69L98.79-30.69Q99.48-31.38 100.25-31.38 101.03-31.38 101.63-30.92 102.23-30.46 102.23-29.48L102.23-29.48 102.23-10.92Q102.23-5.4 98.56-2.24L98.56-2.24Q95.22 0.52 89.99 0.46L89.99 0.46Q84.82 0.46 81.43-2.24L81.43-2.24Q77.75-5.4 77.75-10.92L77.75-10.92Z"
                                                                      fill="#ffffff"
                                                                      data-fill-palette-color="primary"></path>
                                                            </g>
                                                        </svg>
                                                    </g>
                                                </svg>
                                            </g>
                                            <g transform="matrix(1,0,0,1,0,158.95339040947397)">
                                                <svg viewBox="0 0 375.74399999999997 37.400329318332226"
                                                     height="37.400329318332226" width="375.74399999999997">
                                                    <g transform="matrix(1,0,0,1,0,0)">
                                                        <svg width="375.74399999999997"
                                                             viewBox="4.4 -37 377.70000000000005 37.6"
                                                             height="37.400329318332226" data-palette-color="#ffffff">
                                                            <path d="M7.3-15.5L7.3 0 4.4 0 4.4-34.9 17.1-34.9Q25.3-34.9 25.3-25.2L25.3-25.2Q25.3-16.3 18.4-15.55L18.4-15.55 26.1 0 22.9 0 15.55-15.5 7.3-15.5ZM7.3-17.95L17-17.95Q22.2-17.95 22.2-23.55L22.2-23.55 22.2-26.75Q22.2-32.35 17-32.35L17-32.35 7.3-32.35 7.3-17.95ZM34.25-32.65L34.25-32.65Q33.25-32.65 32.82-33.1 32.4-33.55 32.4-34.3L32.4-34.3 32.4-35Q32.4-35.75 32.82-36.2 33.25-36.65 34.25-36.65L34.25-36.65Q35.25-36.65 35.67-36.2 36.1-35.75 36.1-35L36.1-35 36.1-34.3Q36.1-33.55 35.67-33.1 35.25-32.65 34.25-32.65ZM32.85 0L32.85-25.6 35.6-25.6 35.6 0 32.85 0ZM52 0.6L52 0.6Q47.3 0.6 44.67-2.55 42.05-5.7 42.05-12.8L42.05-12.8Q42.05-19.9 44.67-23.05 47.3-26.2 52-26.2L52-26.2Q55.3-26.2 57.37-24.7 59.45-23.2 60.45-20.7L60.45-20.7 58.15-19.55Q57.35-21.65 55.9-22.7 54.45-23.75 52-23.75L52-23.75Q48.5-23.75 46.75-21.53 45-19.3 45-15.05L45-15.05 45-10.55Q45-6.3 46.75-4.08 48.5-1.85 52-1.85L52-1.85Q54.55-1.85 56.15-2.95 57.75-4.05 58.7-6.25L58.7-6.25 60.75-4.85Q59.6-2.35 57.45-0.88 55.3 0.6 52 0.6ZM66.29 0L66.29-37 69.04-37 69.04-21.55 69.44-21.55Q70.14-23.75 71.87-24.98 73.59-26.2 76.34-26.2L76.34-26.2Q79.84-26.2 81.79-23.93 83.74-21.65 83.74-17.1L83.74-17.1 83.74 0 80.99 0 80.99-16.95Q80.99-20.2 79.59-21.98 78.19-23.75 75.34-23.75L75.34-23.75Q74.04-23.75 72.89-23.35 71.74-22.95 70.89-22.18 70.04-21.4 69.54-20.28 69.04-19.15 69.04-17.75L69.04-17.75 69.04 0 66.29 0ZM102.29-34.9L105.19-34.9 105.19-12.4Q105.19-9.7 105.59-7.73 105.99-5.75 106.91-4.48 107.84-3.2 109.36-2.6 110.89-2 113.19-2L113.19-2Q115.49-2 117.01-2.6 118.54-3.2 119.46-4.48 120.39-5.75 120.79-7.73 121.19-9.7 121.19-12.4L121.19-12.4 121.19-34.9 124.09-34.9 124.09-12.85Q124.09-9.3 123.51-6.78 122.94-4.25 121.66-2.6 120.39-0.95 118.31-0.18 116.24 0.6 113.19 0.6L113.19 0.6Q110.14 0.6 108.06-0.18 105.99-0.95 104.71-2.6 103.44-4.25 102.86-6.78 102.29-9.3 102.29-12.85L102.29-12.85 102.29-34.9ZM138.99 0.6L138.99 0.6Q135.99 0.6 133.84-0.58 131.69-1.75 130.09-4.15L130.09-4.15 132.04-5.75Q133.44-3.65 135.09-2.73 136.74-1.8 138.99-1.8L138.99-1.8Q141.54-1.8 143.04-3.05 144.54-4.3 144.54-6.7L144.54-6.7Q144.54-8.8 143.54-9.98 142.54-11.15 139.94-11.6L139.94-11.6 137.94-11.95Q134.44-12.55 132.66-14.18 130.89-15.8 130.89-19.1L130.89-19.1Q130.89-22.75 133.09-24.48 135.29-26.2 138.79-26.2L138.79-26.2Q141.44-26.2 143.39-25.28 145.34-24.35 146.79-22.35L146.79-22.35 144.99-20.7Q142.69-23.8 138.84-23.8L138.84-23.8Q136.29-23.8 134.94-22.65 133.59-21.5 133.59-19.2L133.59-19.2Q133.59-16.95 134.69-15.9 135.79-14.85 138.34-14.4L138.34-14.4 140.29-14.05Q143.94-13.4 145.59-11.75 147.24-10.1 147.24-6.95L147.24-6.95Q147.24-3.35 145.09-1.38 142.94 0.6 138.99 0.6ZM162.18 0.6L162.18 0.6Q159.93 0.6 158.06-0.18 156.18-0.95 154.83-2.58 153.48-4.2 152.76-6.73 152.03-9.25 152.03-12.8L152.03-12.8Q152.03-16.35 152.76-18.88 153.48-21.4 154.83-23.03 156.18-24.65 158.06-25.43 159.93-26.2 162.18-26.2L162.18-26.2Q166.73-26.2 169.31-23.05 171.88-19.9 171.88-13.05L171.88-13.05 171.88-12.3 154.98-12.3 154.98-10.55Q154.98-6.3 156.86-4.08 158.73-1.85 162.18-1.85L162.18-1.85Q165.03-1.85 166.76-3.13 168.48-4.4 169.48-6.95L169.48-6.95 171.38-5.65Q170.28-2.7 168.06-1.05 165.83 0.6 162.18 0.6ZM162.18-23.85L162.18-23.85Q158.73-23.85 156.86-21.58 154.98-19.3 154.98-15.05L154.98-15.05 154.98-14.4 168.93-14.4 168.93-15.05Q168.93-19.3 167.26-21.58 165.58-23.85 162.18-23.85ZM181.08 0L178.33 0 178.33-25.6 181.08-25.6 181.08-20.95 181.48-20.95Q182.18-23.1 183.83-24.35 185.48-25.6 188.03-25.6L188.03-25.6 189.63-25.6 189.63-22.9 187.33-22.9Q184.58-22.9 182.83-21.4 181.08-19.9 181.08-17.25L181.08-17.25 181.08 0ZM215.73 0L203.73 0 203.73-2.4 208.28-2.4 208.28-32.5 203.73-32.5 203.73-34.9 215.73-34.9 215.73-32.5 211.18-32.5 211.18-2.4 215.73-2.4 215.73 0ZM225.42 0L222.67 0 222.67-25.6 225.42-25.6 225.42-21.55 225.82-21.55Q226.52-23.75 228.25-24.98 229.97-26.2 232.72-26.2L232.72-26.2Q236.22-26.2 238.17-23.93 240.12-21.65 240.12-17.1L240.12-17.1 240.12 0 237.37 0 237.37-16.95Q237.37-20.2 235.97-21.98 234.57-23.75 231.72-23.75L231.72-23.75Q230.42-23.75 229.27-23.35 228.12-22.95 227.27-22.18 226.42-21.4 225.92-20.28 225.42-19.15 225.42-17.75L225.42-17.75 225.42 0ZM256.77 0L252.12 0Q250.57 0 249.87-0.68 249.17-1.35 249.17-2.9L249.17-2.9 249.17-23.2 245.22-23.2 245.22-25.6 247.87-25.6Q248.82-25.6 249.12-26.08 249.42-26.55 249.42-27.5L249.42-27.5 249.42-32.75 251.92-32.75 251.92-25.6 257.02-25.6 257.02-23.2 251.92-23.2 251.92-2.4 256.77-2.4 256.77 0ZM271.32 0.6L271.32 0.6Q269.07 0.6 267.19-0.18 265.32-0.95 263.97-2.58 262.62-4.2 261.89-6.73 261.17-9.25 261.17-12.8L261.17-12.8Q261.17-16.35 261.89-18.88 262.62-21.4 263.97-23.03 265.32-24.65 267.19-25.43 269.07-26.2 271.32-26.2L271.32-26.2Q275.87-26.2 278.44-23.05 281.02-19.9 281.02-13.05L281.02-13.05 281.02-12.3 264.12-12.3 264.12-10.55Q264.12-6.3 265.99-4.08 267.87-1.85 271.32-1.85L271.32-1.85Q274.17-1.85 275.89-3.13 277.62-4.4 278.62-6.95L278.62-6.95 280.52-5.65Q279.42-2.7 277.19-1.05 274.97 0.6 271.32 0.6ZM271.32-23.85L271.32-23.85Q267.87-23.85 265.99-21.58 264.12-19.3 264.12-15.05L264.12-15.05 264.12-14.4 278.07-14.4 278.07-15.05Q278.07-19.3 276.39-21.58 274.72-23.85 271.32-23.85ZM290.21 0L287.46 0 287.46-25.6 290.21-25.6 290.21-20.95 290.62-20.95Q291.31-23.1 292.96-24.35 294.62-25.6 297.17-25.6L297.17-25.6 298.76-25.6 298.76-22.9 296.46-22.9Q293.71-22.9 291.96-21.4 290.21-19.9 290.21-17.25L290.21-17.25 290.21 0ZM305.36 0L305.36-23.2 301.41-23.2 301.41-25.6 305.36-25.6 305.36-33.5Q305.36-35.35 306.19-36.18 307.01-37 308.86-37L308.86-37 313.11-37 313.11-34.6 308.11-34.6 308.11-25.6 313.11-25.6 313.11-23.2 308.11-23.2 308.11 0 305.36 0ZM336.76 0L333.71 0Q330.96 0 330.96-2.7L330.96-2.7 330.96-4.1 330.56-4.1Q329.91-1.85 328.16-0.63 326.41 0.6 323.76 0.6L323.76 0.6Q320.16 0.6 318.26-1.23 316.36-3.05 316.36-6.75L316.36-6.75Q316.36-10.4 318.61-12.35 320.86-14.3 325.41-14.3L325.41-14.3 330.96-14.3 330.96-17.7Q330.96-20.95 329.56-22.35 328.16-23.75 325.21-23.75L325.21-23.75Q322.96-23.75 321.46-22.73 319.96-21.7 319.01-19.6L319.01-19.6 317.21-21.15Q318.21-23.4 320.23-24.8 322.26-26.2 325.31-26.2L325.31-26.2Q329.46-26.2 331.58-24.15 333.71-22.1 333.71-18L333.71-18 333.71-2.4 336.76-2.4 336.76 0ZM324.36-1.8L324.36-1.8Q325.76-1.8 326.96-2.23 328.16-2.65 329.06-3.45 329.96-4.25 330.46-5.33 330.96-6.4 330.96-7.7L330.96-7.7 330.96-12.2 325.36-12.2Q322.36-12.2 320.78-11.03 319.21-9.85 319.21-7.75L319.21-7.75 319.21-6.15Q319.21-4 320.63-2.9 322.06-1.8 324.36-1.8ZM350.21 0.6L350.21 0.6Q345.51 0.6 342.88-2.55 340.26-5.7 340.26-12.8L340.26-12.8Q340.26-19.9 342.88-23.05 345.51-26.2 350.21-26.2L350.21-26.2Q353.51-26.2 355.58-24.7 357.66-23.2 358.66-20.7L358.66-20.7 356.36-19.55Q355.56-21.65 354.11-22.7 352.66-23.75 350.21-23.75L350.21-23.75Q346.71-23.75 344.96-21.53 343.21-19.3 343.21-15.05L343.21-15.05 343.21-10.55Q343.21-6.3 344.96-4.08 346.71-1.85 350.21-1.85L350.21-1.85Q352.76-1.85 354.36-2.95 355.96-4.05 356.91-6.25L356.91-6.25 358.96-4.85Q357.81-2.35 355.66-0.88 353.51 0.6 350.21 0.6ZM372.4 0.6L372.4 0.6Q370.15 0.6 368.28-0.18 366.4-0.95 365.06-2.58 363.7-4.2 362.98-6.73 362.25-9.25 362.25-12.8L362.25-12.8Q362.25-16.35 362.98-18.88 363.7-21.4 365.06-23.03 366.4-24.65 368.28-25.43 370.15-26.2 372.4-26.2L372.4-26.2Q376.95-26.2 379.53-23.05 382.1-19.9 382.1-13.05L382.1-13.05 382.1-12.3 365.2-12.3 365.2-10.55Q365.2-6.3 367.08-4.08 368.95-1.85 372.4-1.85L372.4-1.85Q375.25-1.85 376.98-3.13 378.7-4.4 379.7-6.95L379.7-6.95 381.6-5.65Q380.5-2.7 378.28-1.05 376.06 0.6 372.4 0.6ZM372.4-23.85L372.4-23.85Q368.95-23.85 367.08-21.58 365.2-19.3 365.2-15.05L365.2-15.05 365.2-14.4 379.15-14.4 379.15-15.05Q379.15-19.3 377.48-21.58 375.81-23.85 372.4-23.85Z"
                                                                  opacity="1" transform="matrix(1,0,0,1,0,0)"
                                                                  fill="#ffffff" class="slogan-text-1"
                                                                  data-fill-palette-color="secondary"
                                                                  id="text-1"></path>
                                                        </svg>
                                                    </g>
                                                </svg>
                                            </g>
                                        </svg>
                                    </g>
                                </svg>
                            </g>
                            <g>
                                <svg viewBox="0 0 224.58819576425236 271.3608406638282" height="271.3608406638282"
                                     width="224.58819576425236">
                                    <g>
                                        <svg xmlns="http://www.w3.org/2000/svg" x="0" y="0"
                                             viewBox="44.125 0 423.75000000000006 512"
                                             height="271.3608406638282" width="224.58819576425236" class="icon-icon-0"
                                             data-fill-palette-color="accent" id="icon-0">
                                            <g fill="#ffffff" data-fill-palette-color="accent">
                                                <path d="M225.461 458.656c0-17.656-14.328-32-32-32s-32 14.344-32 32c0 17.688 14.328 32 32 32S225.461 476.344 225.461 458.656zM193.461 469.328c-5.883 0-10.664-4.781-10.664-10.672 0-5.875 4.781-10.656 10.664-10.656s10.664 4.781 10.664 10.656C204.125 464.547 199.344 469.328 193.461 469.328z"
                                                      fill="#ffffff" data-fill-palette-color="accent"></path>
                                                <path
                                                        d="M433.031 310.656l-4.781 2.125c-24.375-127.555-48.984-175.016-52.031-180.555-4.562-9.828-13-16.898-22.75-19.461V42.664C353.469 19.102 334.359 0 310.797 0h-224C63.234 0 44.125 19.102 44.125 42.664v426.664c0 23.562 19.109 42.672 42.672 42.672h224c23.562 0 42.672-19.109 42.672-42.672v-29.609l114.406-51.156L433.031 310.656zM340.406 134.148c1.625-0.734 3.297-1.102 4.953-1.102 4.859 0 9.297 3.203 11.609 8.359l0.219 0.492 0.266 0.461c0.266 0.453 25.672 45.773 50.797 179.391l-129.062 57.719-6.469-7.172-121.5-65.797c-4.023-2.188-6.945-5.781-8.227-10.156-1.289-4.375-0.773-9 1.445-13.031 3.062-5.578 8.93-9.031 15.312-9.031 2.883 0 5.641 0.688 8.188 2.062l53.266 28.875-87.844-196.406c-1.836-4.102-0.648-8.117 0.219-10.141 1.57-3.641 4.461-6.625 7.938-8.18 1.945-0.867 4.172-1.328 6.445-1.328 4.852 0 10.766 2.258 13.016 7.297l37.477 83.781 0 0 17.953 40.141 0.008-0.008c0.023 0.062 0.047 0.117 0.07 0.18 2.406 5.375 8.711 7.781 14.094 5.375 5.375-2.398 7.789-8.711 5.383-14.086-0.031-0.062-0.062-0.109-0.086-0.172h0.008l-18.172-40.633c-1.719-3.852-0.336-7.977 0.648-10.078 1.805-3.859 5.031-7.125 8.625-8.734 0.312-0.133 0.633-0.258 0.945-0.375l0.516-0.203c2.008-0.852 4.344-1.305 6.758-1.305 5.148 0 11.305 2.141 13.438 6.922l18.156 40.578h0.008c0.023 0.055 0.039 0.117 0.062 0.172 2.406 5.375 8.727 7.789 14.102 5.383s7.781-8.711 5.375-14.094c-0.031-0.055-0.062-0.109-0.094-0.164l0.016-0.008-10.828-24.211 0 0c-2.75-6.164 1.906-15.516 9.406-18.867 2.062-0.922 4.469-1.406 6.969-1.406 5.094 0 11.219 2.156 13.375 6.969L310 162.406l0 0 6 13.422h0.016c0.016 0.055 0.047 0.117 0.078 0.172 2.406 5.383 8.703 7.789 14.094 5.383 5.375-2.406 7.781-8.711 5.375-14.094-0.031-0.055-0.062-0.109-0.094-0.164h0.016l-6.016-13.43 0 0C326.875 147.867 332.594 137.641 340.406 134.148zM141.062 325.25l31.062 16.828v20.578h-64v-64h13.508c0.234 1.25 0.531 2.484 0.891 3.719C125.422 312.219 132.008 320.359 141.062 325.25zM108.125 245.328v-64h34.297l28.625 64H108.125zM113.883 117.523L118.57 128h-10.445V64h64v12.609c-6.375-5.539-14.945-8.781-24.164-8.781-5.25 0-10.492 1.102-15.156 3.188-8.305 3.719-15.172 10.727-18.828 19.234C110.094 99.289 110.062 108.977 113.883 117.523zM225.461 128V64h64.008v59.391c-4.672 0.273-9.25 1.359-13.344 3.188-0.953 0.43-1.875 0.914-2.797 1.422H225.461zM65.461 42.664c0-11.766 9.57-21.336 21.336-21.336h224c11.766 0 21.328 9.57 21.328 21.336v71.828c-0.141 0.062-0.281 0.117-0.438 0.188-6.984 3.117-13.281 8.695-17.688 15.453-1.031-0.727-2.094-1.398-3.203-2.016V53.328c0-5.891-4.766-10.664-10.672-10.664h-85.328c-5.891 0-10.672 4.773-10.672 10.664v85.336c0 1.016 0.148 1.992 0.414 2.93l-11.078-24.766v-63.5c0-5.891-4.773-10.664-10.664-10.664H97.461c-5.891 0-10.664 4.773-10.664 10.664v85.336c0 5.891 4.773 10.664 10.664 10.664h30.648L132.883 160H97.461c-5.891 0-10.664 4.773-10.664 10.664V256c0 5.891 4.773 10.664 10.664 10.664h32.656c-1.648 1.945-3.117 4.07-4.375 6.367-0.773 1.406-1.445 2.844-2.031 4.297h-26.25c-5.891 0-10.664 4.781-10.664 10.672v85.328c0 5.891 4.773 10.672 10.664 10.672h85.336c5.891 0 10.664-4.781 10.664-10.672v-19.703l10.664 5.781v13.922c0 5.891 4.781 10.672 10.672 10.672h34.727l8.836 4.781-1.828 0.812 7.031 15.734H65.461V42.664zM332.125 469.328c0 11.766-9.562 21.328-21.328 21.328H193.461 86.797c-11.766 0-21.336-9.562-21.336-21.328v-42.672h128 79.648l18.266 40.844 40.75-18.234V469.328zM302.125 439.312l-17.406-38.953 137.531-61.516 17.438 38.938L302.125 439.312z"
                                                        fill="#ffffff" data-fill-palette-color="accent"></path>
                                            </g>
                                        </svg>
                                    </g>
                                </svg>
                            </g>
                        </svg>
                    </g>
                    <defs></defs>
                </svg>
                <rect width="395.52" height="155.0047758949752" fill="none" stroke="none" visibility="hidden"></rect>
            </g>
        </svg>
    </g>
</svg>
