<svg xmlns="http://www.w3.org/2000/svg"
     width="128" height="128" viewBox="0 0 128 128">
    <g transform="matrix(0.8046875,0,0,0.8046875,12.515372778011269,2.753087129934208)">
        <svg viewBox="0 0 79 95" data-background-color="#ffa458" preserveAspectRatio="xMidYMid meet" height="153"
             width="128" xmlns="http://www.w3.org/2000/svg">
            <g id="tight-bounds" transform="matrix(1,0,0,1,-0.011790771484371021,-0.24049999999999727)">
                <svg viewBox="0 0 79.02358154296876 95.481" height="95.481" width="79.02358154296876">
                    <g>
                        <svg viewBox="0 0 79.02358154296876 95.481" height="95.481" width="79.02358154296876">
                            <g>
                                <svg viewBox="0 0 79.02358154296876 95.481" height="95.481" width="79.02358154296876">
                                    <g id="textblocktransform">
                                        <svg viewBox="0 0 79.02358154296876 95.481" height="95.481"
                                             width="79.02358154296876" id="textblock">
                                            <g>
                                                <svg viewBox="0 0 79.02358154296876 95.481" height="95.481"
                                                     width="79.02358154296876">
                                                    <g>
                                                        <svg viewBox="0 0 79.02358154296876 95.481" height="95.481"
                                                             width="79.02358154296876">
                                                            <g>
                                                                <svg xmlns="http://www.w3.org/2000/svg"
                                                                     x="0" y="0"
                                                                     viewBox="44.125 0 423.75000000000006 512"
                                                                     height="95.481"
                                                                     width="79.02358154296876" class="icon-icon-0"
                                                                     data-fill-palette-color="accent" id="icon-0">
                                                                    <g fill="#ffffff" data-fill-palette-color="accent">
                                                                        <path d="M225.461 458.656c0-17.656-14.328-32-32-32s-32 14.344-32 32c0 17.688 14.328 32 32 32S225.461 476.344 225.461 458.656zM193.461 469.328c-5.883 0-10.664-4.781-10.664-10.672 0-5.875 4.781-10.656 10.664-10.656s10.664 4.781 10.664 10.656C204.125 464.547 199.344 469.328 193.461 469.328z"
                                                                              fill="#E8772E"
                                                                              data-fill-palette-color="accent"></path>
                                                                        <path
                                                                                d="M433.031 310.656l-4.781 2.125c-24.375-127.555-48.984-175.016-52.031-180.555-4.562-9.828-13-16.898-22.75-19.461V42.664C353.469 19.102 334.359 0 310.797 0h-224C63.234 0 44.125 19.102 44.125 42.664v426.664c0 23.562 19.109 42.672 42.672 42.672h224c23.562 0 42.672-19.109 42.672-42.672v-29.609l114.406-51.156L433.031 310.656zM340.406 134.148c1.625-0.734 3.297-1.102 4.953-1.102 4.859 0 9.297 3.203 11.609 8.359l0.219 0.492 0.266 0.461c0.266 0.453 25.672 45.773 50.797 179.391l-129.062 57.719-6.469-7.172-121.5-65.797c-4.023-2.188-6.945-5.781-8.227-10.156-1.289-4.375-0.773-9 1.445-13.031 3.062-5.578 8.93-9.031 15.312-9.031 2.883 0 5.641 0.688 8.188 2.062l53.266 28.875-87.844-196.406c-1.836-4.102-0.648-8.117 0.219-10.141 1.57-3.641 4.461-6.625 7.938-8.18 1.945-0.867 4.172-1.328 6.445-1.328 4.852 0 10.766 2.258 13.016 7.297l37.477 83.781 0 0 17.953 40.141 0.008-0.008c0.023 0.062 0.047 0.117 0.07 0.18 2.406 5.375 8.711 7.781 14.094 5.375 5.375-2.398 7.789-8.711 5.383-14.086-0.031-0.062-0.062-0.109-0.086-0.172h0.008l-18.172-40.633c-1.719-3.852-0.336-7.977 0.648-10.078 1.805-3.859 5.031-7.125 8.625-8.734 0.312-0.133 0.633-0.258 0.945-0.375l0.516-0.203c2.008-0.852 4.344-1.305 6.758-1.305 5.148 0 11.305 2.141 13.438 6.922l18.156 40.578h0.008c0.023 0.055 0.039 0.117 0.062 0.172 2.406 5.375 8.727 7.789 14.102 5.383s7.781-8.711 5.375-14.094c-0.031-0.055-0.062-0.109-0.094-0.164l0.016-0.008-10.828-24.211 0 0c-2.75-6.164 1.906-15.516 9.406-18.867 2.062-0.922 4.469-1.406 6.969-1.406 5.094 0 11.219 2.156 13.375 6.969L310 162.406l0 0 6 13.422h0.016c0.016 0.055 0.047 0.117 0.078 0.172 2.406 5.383 8.703 7.789 14.094 5.383 5.375-2.406 7.781-8.711 5.375-14.094-0.031-0.055-0.062-0.109-0.094-0.164h0.016l-6.016-13.43 0 0C326.875 147.867 332.594 137.641 340.406 134.148zM141.062 325.25l31.062 16.828v20.578h-64v-64h13.508c0.234 1.25 0.531 2.484 0.891 3.719C125.422 312.219 132.008 320.359 141.062 325.25zM108.125 245.328v-64h34.297l28.625 64H108.125zM113.883 117.523L118.57 128h-10.445V64h64v12.609c-6.375-5.539-14.945-8.781-24.164-8.781-5.25 0-10.492 1.102-15.156 3.188-8.305 3.719-15.172 10.727-18.828 19.234C110.094 99.289 110.062 108.977 113.883 117.523zM225.461 128V64h64.008v59.391c-4.672 0.273-9.25 1.359-13.344 3.188-0.953 0.43-1.875 0.914-2.797 1.422H225.461zM65.461 42.664c0-11.766 9.57-21.336 21.336-21.336h224c11.766 0 21.328 9.57 21.328 21.336v71.828c-0.141 0.062-0.281 0.117-0.438 0.188-6.984 3.117-13.281 8.695-17.688 15.453-1.031-0.727-2.094-1.398-3.203-2.016V53.328c0-5.891-4.766-10.664-10.672-10.664h-85.328c-5.891 0-10.672 4.773-10.672 10.664v85.336c0 1.016 0.148 1.992 0.414 2.93l-11.078-24.766v-63.5c0-5.891-4.773-10.664-10.664-10.664H97.461c-5.891 0-10.664 4.773-10.664 10.664v85.336c0 5.891 4.773 10.664 10.664 10.664h30.648L132.883 160H97.461c-5.891 0-10.664 4.773-10.664 10.664V256c0 5.891 4.773 10.664 10.664 10.664h32.656c-1.648 1.945-3.117 4.07-4.375 6.367-0.773 1.406-1.445 2.844-2.031 4.297h-26.25c-5.891 0-10.664 4.781-10.664 10.672v85.328c0 5.891 4.773 10.672 10.664 10.672h85.336c5.891 0 10.664-4.781 10.664-10.672v-19.703l10.664 5.781v13.922c0 5.891 4.781 10.672 10.672 10.672h34.727l8.836 4.781-1.828 0.812 7.031 15.734H65.461V42.664zM332.125 469.328c0 11.766-9.562 21.328-21.328 21.328H193.461 86.797c-11.766 0-21.336-9.562-21.336-21.328v-42.672h128 79.648l18.266 40.844 40.75-18.234V469.328zM302.125 439.312l-17.406-38.953 137.531-61.516 17.438 38.938L302.125 439.312z"
                                                                                fill="#E8772E"
                                                                                data-fill-palette-color="accent"></path>
                                                                    </g>
                                                                </svg>
                                                            </g>
                                                        </svg>
                                                    </g>
                                                </svg>
                                            </g>
                                        </svg>
                                    </g>
                                </svg>
                            </g>
                        </svg>
                    </g>
                    <defs></defs>
                </svg>
                <rect width="79.02358154296876" height="95.481" fill="none" stroke="none" visibility="hidden"></rect>
            </g>
        </svg>
    </g>
</svg>
